<svg xmlns="http://www.w3.org/2000/svg" width="640" height="420" viewBox="0 0 640 420">
  <rect width="640" height="420" fill="#f8fafc"/>
  <rect x="44" y="36" width="552" height="48" rx="8" fill="#fff" stroke="#0f172a" stroke-width="4"/>
  <line x1="84" y1="60" x2="188" y2="60" stroke="#0f172a" stroke-width="8" stroke-linecap="round"/>
  <line x1="430" y1="60" x2="552" y2="60" stroke="#2563eb" stroke-width="8" stroke-linecap="round"/>
  <rect x="54" y="112" width="532" height="118" rx="14" fill="#dbeafe" stroke="#1e40af" stroke-width="4"/>
  <line x1="92" y1="148" x2="356" y2="148" stroke="#0f172a" stroke-width="10" stroke-linecap="round"/>
  <line x1="92" y1="178" x2="454" y2="178" stroke="#334155" stroke-width="6" stroke-linecap="round"/>
  <rect x="420" y="136" width="110" height="66" rx="12" fill="#fff" stroke="#2563eb" stroke-width="4"/>
  <rect x="58" y="260" width="156" height="92" rx="12" fill="#fff" stroke="#0f172a" stroke-width="4"/>
  <rect x="242" y="260" width="156" height="92" rx="12" fill="#fff" stroke="#0f172a" stroke-width="4"/>
  <rect x="426" y="260" width="156" height="92" rx="12" fill="#fff" stroke="#0f172a" stroke-width="4"/>
  <line x1="84" y1="292" x2="178" y2="292" stroke="#0f172a" stroke-width="6" stroke-linecap="round"/>
  <line x1="268" y1="292" x2="362" y2="292" stroke="#0f172a" stroke-width="6" stroke-linecap="round"/>
  <line x1="452" y1="292" x2="546" y2="292" stroke="#0f172a" stroke-width="6" stroke-linecap="round"/>
  <path d="M92 384c70-28 145-28 224 0s156 28 232 0" fill="none" stroke="#2563eb" stroke-width="6" stroke-linecap="round"/>
</svg>
